<?xml version="1.0" encoding="UTF-8"?>
<svg width="498px" height="391px" viewBox="0 0 498 391" version="1.1" xmlns="http://www.w3.org/2000/svg" xmlns:xlink="http://www.w3.org/1999/xlink">
    <title>Black Logo</title>
    <g id="Symbols" stroke="none" stroke-width="1" fill="none" fill-rule="evenodd">
        <g id="Black-Logo" transform="translate(1.000000, 1.000000)">
            <rect id="Rectangle" stroke="#979797" stroke-width="2" fill="#000000" x="0" y="0" width="496" height="389"></rect>
            <g id="Logo---Black" transform="translate(116.000000, 104.000000)">
                <g id="Back-Trucks" transform="translate(147.000000, 57.000000)" fill="#000000" stroke="#FFFFFF" stroke-width="2">
                    <path d="M34.0005398,18.2364481 L54.2210305,14 C54.3504487,15.1404025 56.1311483,16.0442308 59.5631293,16.7114849 C62.9951103,17.378739 68.6958104,17.9294627 76.6652295,18.363656 L76.5024654,25.3637887 C55.5757413,25.533114 43.3465029,24.6728557 39.8147503,22.7830136 C35.9119287,20.6946125 33.9738586,19.1790906 34.0005398,18.2364481 Z" id="Rectangle-Copy" transform="translate(55.332615, 19.692337) rotate(20.000000) translate(-55.332615, -19.692337) "></path>
                    <path d="M22.677114,18.4325555 C23.5366938,17.9488958 25.0265446,14.7844948 26.8641975,13.9224945 C28.2921749,13.2526635 30.166449,12.7184747 32.5198291,12.1933944 C34.6180634,11.7254281 37.2518138,11.0797537 37.8669735,13.2430512 C39.6670059,19.5731241 53.5863566,22.3524206 79.6250257,21.5809406 L79,32.3947783 L2,32.3947783 L2,21.5242425 C12.7024215,21.1974474 19.5947928,20.166885 22.677114,18.4325555 Z" id="Rectangle" transform="translate(40.812513, 22.060103) rotate(17.000000) translate(-40.812513, -22.060103) "></path>
                    <g id="Wheel-Copy" transform="translate(67.000000, 19.000000)">
                        <path d="M26.8757183,34.0901712 L10.4885133,33.4682608 C6.23957513,29.2096467 4.33888362,23.4323328 4.78643875,16.136319 C5.23399387,8.84030519 7.12358572,4.80413524 10.4552143,4.02780916 L24.1188475,2.86650364" id="Path" transform="translate(15.799091, 18.478337) rotate(16.000000) translate(-15.799091, -18.478337) "></path>
                        <ellipse id="Oval" transform="translate(25.121591, 21.151521) rotate(11.000000) translate(-25.121591, -21.151521) " cx="25.1215914" cy="21.1515214" rx="6.14962109" ry="15.6725654"></ellipse>
                        <ellipse id="Oval-Copy-4" transform="translate(25.495627, 21.708429) rotate(11.000000) translate(-25.495627, -21.708429) " cx="25.4956271" cy="21.7084286" rx="2.83828728" ry="7.59881955"></ellipse>
                    </g>
                </g>
                <g id="Front-Trucks" transform="translate(34.000000, 114.000000)" fill="#000000" stroke="#FFFFFF" stroke-width="2">
                    <g id="Wheel-Copy-2" transform="translate(0.915806, 0.288785)">
                        <path d="M26.8757183,34.0901712 L10.4885133,33.4682608 C6.23957513,29.2096467 4.33888362,23.4323328 4.78643875,16.136319 C5.23399387,8.84030519 7.12358572,4.80413524 10.4552143,4.02780916 L24.1188475,2.86650364" id="Path" transform="translate(15.799091, 18.478337) rotate(16.000000) translate(-15.799091, -18.478337) "></path>
                        <ellipse id="Oval" transform="translate(25.121591, 21.151521) rotate(11.000000) translate(-25.121591, -21.151521) " cx="25.1215914" cy="21.1515214" rx="6.14962109" ry="15.6725654"></ellipse>
                        <ellipse id="Oval-Copy-4" transform="translate(25.495627, 21.708429) rotate(11.000000) translate(-25.495627, -21.708429) " cx="25.4956271" cy="21.7084286" rx="2.83828728" ry="7.59881955"></ellipse>
                    </g>
                    <path d="M58.2671768,25.665062 L78.4876675,21.4286139 C78.6170856,22.5690163 80.3977852,23.4728446 83.8297662,24.1400988 C87.2617473,24.8073529 92.9624473,25.3580766 100.931866,25.7922698 L100.769102,32.7924025 C79.8423782,32.9617279 67.6131399,32.1014695 64.0813872,30.2116275 C60.1785656,28.1232263 58.2404955,26.6077045 58.2671768,25.665062 Z" id="Rectangle" transform="translate(79.599252, 27.120951) rotate(20.000000) translate(-79.599252, -27.120951) "></path>
                    <path d="M25.999989,28.5242409 C36.7024105,28.1974457 43.5947819,27.1668834 46.677103,25.4325539 C47.5366828,24.9488942 49.0265336,21.7844932 50.8641865,20.9224929 C52.2921639,20.2526618 54.166438,19.718473 56.5198182,19.1933928 C58.6180525,18.7255015 61.2518029,18.0797521 61.8669625,20.2430495 C63.6669949,26.5731225 77.5863457,29.352419 103.625015,28.580939 L102.999989,39.3947766 L25.999989,39.3947766" id="Path" transform="translate(64.812502, 29.060139) rotate(17.000000) translate(-64.812502, -29.060139) "></path>
                    <g id="Wheel" transform="translate(90.858695, 25.524025)">
                        <path d="M28.3925665,35.874425 L11.0753098,35.2391571 C6.59012183,30.7600246 4.5883765,24.6789333 5.07007377,16.9958831 C5.55177105,9.31283286 7.55351638,5.06059088 11.0753098,4.23915713 L25.516427,3" id="Path" transform="translate(16.696283, 19.437213) rotate(16.000000) translate(-16.696283, -19.437213) "></path>
                        <ellipse id="Oval" transform="translate(26.557111, 22.264759) rotate(11.000000) translate(-26.557111, -22.264759) " cx="26.5571109" cy="22.2647594" rx="6.5" ry="16.5"></ellipse>
                        <ellipse id="Oval-Copy-4" transform="translate(26.952520, 22.850977) rotate(11.000000) translate(-26.952520, -22.850977) " cx="26.95252" cy="22.8509774" rx="3" ry="8"></ellipse>
                    </g>
                </g>
                <path d="M46.0552844,100.413128 C49.0062887,97.4949925 79.2542483,78.0141826 136.799163,41.9706983 C144.620598,38.702797 151.023785,35.4594577 156.008724,32.2406804 C160.993663,29.021903 166.388214,24.111782 172.192377,17.5103174 C192.524792,0.187714561 215.780331,-4.28221282 241.958993,4.10053529 C281.226987,16.6746574 258.60077,59.0360456 251.20715,62.2819327 C247.124015,64.0744775 238.269129,66.9873326 235.394718,68.7427567 C133.378688,131.044689 140.571853,140.092212 126.666678,145.936639 C105.617754,154.783627 67.2355795,148.124801 27.5425827,140.092212 C1.08058486,134.737152 -6.31355712,128.623854 5.3601568,121.752318 C18.8966972,119.109601 28.2548876,116.316229 33.4347279,113.372202 C41.2044885,108.956162 40.7809174,105.628748 46.0552844,100.413128 Z" id="Deck" stroke="#FFFFFF" stroke-width="2" fill="#000000"></path>
                <g id="Bolts---Nose" transform="translate(94.000000, 114.000000) rotate(6.000000) translate(-94.000000, -114.000000) translate(79.000000, 106.000000)" fill="#FFFFFF">
                    <ellipse id="Bolt" cx="19" cy="14.5" rx="2" ry="1.5"></ellipse>
                    <ellipse id="Bolt-Copy" cx="2" cy="11.5" rx="2" ry="1.5"></ellipse>
                    <ellipse id="Bolt-Copy-2" cx="28" cy="4.5" rx="2" ry="1.5"></ellipse>
                    <ellipse id="Bolt-Copy-3" cx="13" cy="1.5" rx="2" ry="1.5"></ellipse>
                </g>
                <g id="Bolts---Tail" transform="translate(182.000000, 57.000000) rotate(6.000000) translate(-182.000000, -57.000000) translate(167.000000, 49.000000)" fill="#FFFFFF">
                    <ellipse id="Bolt" cx="19" cy="14.5" rx="2" ry="1.5"></ellipse>
                    <ellipse id="Bolt-Copy" cx="2" cy="11.5" rx="2" ry="1.5"></ellipse>
                    <ellipse id="Bolt-Copy-2" cx="28" cy="4.5" rx="2" ry="1.5"></ellipse>
                    <ellipse id="Bolt-Copy-3" cx="13" cy="1.5" rx="2" ry="1.5"></ellipse>
                </g>
            </g>
        </g>
    </g>
</svg>