<?xml version="1.0" encoding="UTF-8"?>
<svg width="739px" height="501px" viewBox="0 0 739 501" version="1.1" xmlns="http://www.w3.org/2000/svg" xmlns:xlink="http://www.w3.org/1999/xlink">
    <title>Black Logo</title>
    <g id="Symbols" stroke="none" stroke-width="1" fill="none" fill-rule="evenodd">
        <g id="Logo---Black" transform="translate(2.000000, 1.000000)">
            <g id="Back-Trucks" transform="translate(408.333333, 158.333333)" fill="#000000" stroke="#FFFFFF" stroke-width="2">
                <path d="M94.4451667,50.6569277 L150.613951,38.8890162 C150.973446,42.0568009 155.919834,44.567435 165.453115,46.4209187 C174.986395,48.2744024 190.821673,49.8041905 212.958948,51.0102829 L212.506826,70.4550958 C154.377037,70.925444 120.40693,68.5358375 110.596506,63.2862763 C99.7553351,57.485162 94.3715553,53.2753791 94.4451667,50.6569277 Z" id="Rectangle-Copy" transform="translate(153.702058, 54.701064) rotate(20.000000) translate(-153.702058, -54.701064) "></path>
                <path d="M62.9919833,51.2015432 C65.3797049,49.858044 69.5181794,41.0680412 74.6227708,38.6735959 C78.5893747,36.812954 83.7956917,35.3290963 90.3328587,33.87054 C96.1612873,32.5706335 103.477261,30.7770937 105.186037,36.7862533 C110.186128,54.3697893 148.850991,62.0900572 221.180627,59.9470573 L219.444444,89.9854952 L5.55555556,89.9854952 L5.55555556,59.7895626 C35.2845041,58.8817982 54.4299801,56.0191251 62.9919833,51.2015432 Z" id="Rectangle" transform="translate(113.368091, 61.278064) rotate(17.000000) translate(-113.368091, -61.278064) "></path>
                <g id="Wheel-Copy" transform="translate(186.111111, 52.777778)">
                    <path d="M74.6547732,94.69492 L29.1347591,92.9673912 C17.3321531,81.1379076 12.0524545,65.0898133 13.2956632,44.8231083 C14.5388719,24.5564033 19.7877381,13.3448201 29.0422619,11.1883588 L66.9967987,7.96251011" id="Path" transform="translate(43.886364, 51.328715) rotate(16.000000) translate(-43.886364, -51.328715) "></path>
                    <ellipse id="Oval" transform="translate(69.782198, 58.754226) rotate(11.000000) translate(-69.782198, -58.754226) " cx="69.7821984" cy="58.7542261" rx="17.0822808" ry="43.5349039"></ellipse>
                    <ellipse id="Oval-Copy-4" transform="translate(70.821186, 60.301190) rotate(11.000000) translate(-70.821186, -60.301190) " cx="70.8211863" cy="60.3011905" rx="7.88413134" ry="21.1078321"></ellipse>
                </g>
            </g>
            <g id="Front-Trucks" transform="translate(94.444444, 316.666667)" fill="#000000" stroke="#FFFFFF" stroke-width="2">
                <g id="Wheel-Copy-2" transform="translate(2.543905, 0.802180)">
                    <path d="M74.6547732,94.69492 L29.1347591,92.9673912 C17.3321531,81.1379076 12.0524545,65.0898133 13.2956632,44.8231083 C14.5388719,24.5564033 19.7877381,13.3448201 29.0422619,11.1883588 L66.9967987,7.96251011" id="Path" transform="translate(43.886364, 51.328715) rotate(16.000000) translate(-43.886364, -51.328715) "></path>
                    <ellipse id="Oval" transform="translate(69.782198, 58.754226) rotate(11.000000) translate(-69.782198, -58.754226) " cx="69.7821984" cy="58.7542261" rx="17.0822808" ry="43.5349039"></ellipse>
                    <ellipse id="Oval-Copy-4" transform="translate(70.821186, 60.301190) rotate(11.000000) translate(-70.821186, -60.301190) " cx="70.8211863" cy="60.3011905" rx="7.88413134" ry="21.1078321"></ellipse>
                </g>
                <path d="M161.852491,71.2919662 L218.021276,59.5240547 C218.380771,62.6918393 223.327159,65.2024735 232.860439,67.0559572 C242.39372,68.9094409 258.228998,70.439229 280.366273,71.6453214 L279.914151,91.0901343 C221.784362,91.5604825 187.814255,89.170876 178.003831,83.9213147 C167.16266,78.1202004 161.77888,73.9104176 161.852491,71.2919662 Z" id="Rectangle" transform="translate(221.109382, 75.336102) rotate(20.000000) translate(-221.109382, -75.336102) "></path>
                <path d="M72.2221917,79.2340025 C101.95114,78.3262381 121.096616,75.463565 129.65862,70.6459831 C132.046341,69.3024839 136.184816,60.5124811 141.289407,58.1180357 C145.256011,56.2573939 150.462328,54.7735362 156.999495,53.3149799 C162.827924,52.0152819 170.143897,50.2215336 171.852674,56.2306932 C176.852764,73.8142291 215.517627,81.5344971 287.847263,79.3914972 L286.111081,109.429935 L72.2221917,109.429935" id="Path" transform="translate(180.034727, 80.722608) rotate(17.000000) translate(-180.034727, -80.722608) "></path>
                <g id="Wheel" transform="translate(252.385263, 70.900070)">
                    <path d="M78.8682402,99.6511807 L30.7647494,97.8865476 C18.305894,85.4445128 12.7454903,68.5525924 14.0835383,47.2107863 C15.4215862,25.8689802 20.9819899,14.0571969 30.7647494,11.7754365 L70.8789638,8.33333333" id="Path" transform="translate(46.378565, 53.992257) rotate(16.000000) translate(-46.378565, -53.992257) "></path>
                    <ellipse id="Oval" transform="translate(73.769753, 61.846554) rotate(11.000000) translate(-73.769753, -61.846554) " cx="73.7697526" cy="61.8465538" rx="18.0555556" ry="45.8333333"></ellipse>
                    <ellipse id="Oval-Copy-4" transform="translate(74.868111, 63.474937) rotate(11.000000) translate(-74.868111, -63.474937) " cx="74.8681112" cy="63.4749374" rx="8.33333333" ry="22.2222222"></ellipse>
                </g>
            </g>
            <path d="M127.931345,278.925356 C136.12858,270.819424 220.15069,216.706063 379.997675,116.585273 C401.723884,107.50777 419.510514,98.4984937 433.357567,89.5574455 C447.204619,80.6163973 462.189484,66.9771724 478.31216,48.6397706 C534.791089,0.521429336 599.389807,-11.8950356 672.108315,11.3903758 C781.186076,46.3184929 718.335471,163.989016 697.797639,173.005369 C686.455598,177.98466 661.858693,186.075924 653.874216,190.952102 C370.496355,364.013024 390.477369,389.145033 351.851883,405.379554 C293.382651,429.95452 186.765499,411.457781 76.5071743,389.145033 C3.00162462,374.269867 -17.5376587,357.288484 14.8893244,338.200882 C52.4908255,330.860003 78.4857988,323.100637 92.8742442,314.922784 C114.456912,302.656005 113.280326,293.41319 127.931345,278.925356 Z" id="Deck" stroke="#FFFFFF" stroke-width="2" fill="#000000"></path>
            <g id="Bolts---Nose" transform="translate(261.111111, 316.666667) rotate(6.000000) translate(-261.111111, -316.666667) translate(219.444444, 294.444444)" fill="#FFFFFF">
                <ellipse id="Bolt" cx="52.7777778" cy="40.2777778" rx="5.55555556" ry="4.16666667"></ellipse>
                <ellipse id="Bolt-Copy" cx="5.55555556" cy="31.9444444" rx="5.55555556" ry="4.16666667"></ellipse>
                <ellipse id="Bolt-Copy-2" cx="77.7777778" cy="12.5" rx="5.55555556" ry="4.16666667"></ellipse>
                <ellipse id="Bolt-Copy-3" cx="36.1111111" cy="4.16666667" rx="5.55555556" ry="4.16666667"></ellipse>
            </g>
            <g id="Bolts---Tail" transform="translate(505.555556, 158.333333) rotate(6.000000) translate(-505.555556, -158.333333) translate(463.888889, 136.111111)" fill="#FFFFFF">
                <ellipse id="Bolt" cx="52.7777778" cy="40.2777778" rx="5.55555556" ry="4.16666667"></ellipse>
                <ellipse id="Bolt-Copy" cx="5.55555556" cy="31.9444444" rx="5.55555556" ry="4.16666667"></ellipse>
                <ellipse id="Bolt-Copy-2" cx="77.7777778" cy="12.5" rx="5.55555556" ry="4.16666667"></ellipse>
                <ellipse id="Bolt-Copy-3" cx="36.1111111" cy="4.16666667" rx="5.55555556" ry="4.16666667"></ellipse>
            </g>
        </g>
    </g>
</svg>